<?xml version="1.0" encoding="iso-8859-1"?>
<!-- Generator: Adobe Illustrator 19.0.0, SVG Export Plug-In . SVG Version: 6.00 Build 0)  -->
<svg version="1.1" id="Capa_1" xmlns="http://www.w3.org/2000/svg" xmlns:xlink="http://www.w3.org/1999/xlink" x="0px" y="0px"
	 viewBox="0 0 512 512" style="enable-background:new 0 0 512 512;" xml:space="preserve">
<path style="fill:#1F6C8C;" d="M162.133,247.467h187.733c47.13,0,85.333,38.204,85.333,85.333v59.733l0,0H76.8l0,0V332.8
	C76.8,285.67,115.004,247.467,162.133,247.467z"/>
<path style="fill:#DC4D41;" d="M477.867,503.467H34.133v-76.8c0-56.55,45.85-102.4,102.4-102.4h238.933
	c56.55,0,102.4,45.85,102.4,102.4V503.467z"/>
<g>
	<path style="fill:#C7463B;" d="M187.733,332.8v68.267c0,10.743-5.06,20.864-13.653,27.307l-54.613,40.96v-42.667l20.48-15.36
		C148.54,404.864,153.6,394.743,153.6,384v-51.2H187.733z"/>
	<path style="fill:#C7463B;" d="M324.267,332.8v68.267c0,10.743,5.06,20.864,13.653,27.307l54.613,40.96v-42.667l-20.48-15.36
		C363.46,404.864,358.4,394.743,358.4,384v-51.2H324.267z"/>
</g>
<g>
	<path style="fill:#3B869E;" d="M187.733,324.267v68.267c0,10.743-5.06,20.864-13.653,27.307l-54.613,40.96v-42.667l20.48-15.36
		c8.593-6.443,13.653-16.563,13.653-27.307v-51.2H187.733z"/>
	<path style="fill:#3B869E;" d="M324.267,324.267v68.267c0,10.743,5.06,20.864,13.653,27.307l54.613,40.96v-42.667l-20.48-15.36
		c-8.593-6.443-13.653-16.563-13.653-27.307v-51.2H324.267z"/>
</g>
<g>
	<path style="fill:#FDC9A6;" d="M221.867,281.6h68.267l0,0v51.2c0,18.85-15.283,34.133-34.133,34.133
		c-18.85,0-34.133-15.283-34.133-34.133V281.6L221.867,281.6z"/>
	<path style="fill:#FDC9A6;" d="M34.133,469.333h85.333v34.133H34.133V469.333z"/>
	<path style="fill:#FDC9A6;" d="M392.533,469.333h85.333v34.133h-85.333V469.333z"/>
</g>
<path style="fill:#F6BB92;" d="M221.867,264.533h68.267l0,0v8.533c0,18.85-15.283,34.133-34.133,34.133
	c-18.85,0-34.133-15.283-34.133-34.133V264.533L221.867,264.533z"/>
<path style="fill:#FDC9A6;" d="M162.133,76.8h187.733l0,0v119.467c0,51.84-42.027,93.867-93.867,93.867
	s-93.867-42.027-93.867-93.867V76.8L162.133,76.8z"/>
<path style="fill:#D68F29;" d="M162.133,76.8v76.8l27.861-9.284c13.935-4.651,23.339-17.69,23.339-32.384V102.4l39.629,23.774
	c26.854,16.128,61.235,11.904,83.396-10.24l13.508-13.534V76.8H162.133z"/>
<g>
	<path style="fill:#804D35;" d="M213.333,187.733c-4.71,0-8.533-3.823-8.533-8.533v-8.533c0-4.71,3.823-8.533,8.533-8.533
		s8.533,3.823,8.533,8.533v8.533C221.867,183.91,218.044,187.733,213.333,187.733z"/>
	<path style="fill:#804D35;" d="M298.667,187.733c-4.71,0-8.533-3.823-8.533-8.533v-8.533c0-4.71,3.823-8.533,8.533-8.533
		s8.533,3.823,8.533,8.533v8.533C307.2,183.91,303.377,187.733,298.667,187.733z"/>
	<path style="fill:#804D35;" d="M256,221.867c-1.323,0-2.62-0.307-3.806-0.896l-17.067-8.533c-4.215-2.108-5.931-7.228-3.823-11.443
		c0.162-0.324,0.341-0.631,0.538-0.93l17.067-25.6c2.62-3.925,7.91-4.983,11.836-2.364c3.925,2.62,4.983,7.91,2.364,11.836
		l-11.716,17.553l8.422,4.207c4.215,2.099,5.931,7.228,3.831,11.443C262.204,220.041,259.243,221.867,256,221.867z"/>
	<path style="fill:#804D35;" d="M256,255.915c-14.302-0.316-27.87-6.409-37.606-16.896l-2.56-2.603l12.1-12.032l2.56,2.56
		c12.203,14.089,33.519,15.616,47.607,3.413c1.22-1.058,2.355-2.193,3.413-3.413l2.56-2.56l12.1,12.032l-2.56,2.56
		C283.887,249.481,270.31,255.59,256,255.915z"/>
</g>
<g>
	<path style="fill:#F6BB92;" d="M153.6,145.067h8.533l0,0v51.2l0,0H153.6c-14.14,0-25.6-11.46-25.6-25.6
		C128,156.527,139.46,145.067,153.6,145.067z"/>
	<path style="fill:#F6BB92;" d="M358.4,196.267h-8.533l0,0v-51.2l0,0h8.533c14.14,0,25.6,11.46,25.6,25.6
		C384,184.806,372.54,196.267,358.4,196.267z"/>
</g>
<path style="fill:#89B140;" d="M230.4,8.533h51.2c37.7,0,68.267,30.566,68.267,68.267l0,0H162.133l0,0
	C162.133,39.1,192.7,8.533,230.4,8.533z"/>
<path style="fill:#79A73A;" d="M162.133,68.267h264.533v17.067H162.133V68.267z"/>
<path d="M85.333,343.612H68.267V332.8c0-51.755,42.112-93.867,93.867-93.867h15.189V256h-15.189c-42.342,0-76.8,34.449-76.8,76.8
	V343.612z"/>
<path d="M443.733,343.509h-17.067V332.8c0-42.351-34.449-76.8-76.8-76.8h-15.215v-17.067h15.215
	c51.755,0,93.867,42.112,93.867,93.867V343.509z"/>
<path d="M256,298.667c-56.465,0-102.4-45.935-102.4-102.4v-128h204.8v128C358.4,252.732,312.465,298.667,256,298.667z
	 M170.667,85.333v110.933c0,47.053,38.281,85.333,85.333,85.333s85.333-38.281,85.333-85.333V85.333H170.667z"/>
<path d="M358.4,85.333H153.6V76.8c0-42.342,34.458-76.8,76.8-76.8h51.2c42.351,0,76.8,34.458,76.8,76.8V85.333z M171.273,68.267
	h169.446c-4.147-28.911-29.073-51.2-59.119-51.2h-51.2C200.354,17.067,175.428,39.356,171.273,68.267z"/>
<path d="M162.133,162.133c-1.766,0-3.516-0.546-4.992-1.613c-2.227-1.604-3.541-4.181-3.541-6.921V76.8
	c0-4.71,3.823-8.533,8.533-8.533h187.733c4.719,0,8.533,3.823,8.533,8.533v25.6c0,2.261-0.896,4.429-2.492,6.033L342.4,121.967
	c-24.994,24.96-63.582,29.687-93.833,11.529l-27.034-16.222c-2.014,16.145-13.099,29.892-28.834,35.14l-27.87,9.284
	C163.951,161.988,163.038,162.133,162.133,162.133z M170.667,85.333v56.431l16.631-5.538c10.47-3.49,17.502-13.252,17.502-24.294
	V102.4c0-3.072,1.655-5.914,4.326-7.424c2.671-1.519,5.956-1.476,8.593,0.111l39.629,23.774
	c23.535,14.131,53.547,10.453,72.969-8.96l11.017-11.034V85.333H170.667z"/>
<path style="fill:#FFFFFF;" d="M213.333,170.667v8.533"/>
<path d="M213.333,187.733c-4.71,0-8.533-3.823-8.533-8.533v-8.533c0-4.71,3.823-8.533,8.533-8.533s8.533,3.823,8.533,8.533v8.533
	C221.867,183.91,218.044,187.733,213.333,187.733z"/>
<path style="fill:#FFFFFF;" d="M298.667,170.667v8.533"/>
<path d="M298.667,187.733c-4.719,0-8.533-3.823-8.533-8.533v-8.533c0-4.71,3.814-8.533,8.533-8.533c4.719,0,8.533,3.823,8.533,8.533
	v8.533C307.2,183.91,303.386,187.733,298.667,187.733z"/>
<path d="M255.991,221.867c-1.28,0-2.586-0.29-3.806-0.896l-17.067-8.533c-2.185-1.092-3.806-3.081-4.429-5.444
	c-0.631-2.364-0.213-4.89,1.143-6.929l17.067-25.6c2.62-3.917,7.91-4.992,11.836-2.364c3.925,2.611,4.983,7.91,2.364,11.836
	l-11.708,17.562l8.422,4.207c4.215,2.108,5.922,7.236,3.814,11.452C262.135,220.143,259.123,221.867,255.991,221.867z"/>
<path d="M256.034,255.863c-14.089,0-28.109-5.862-38.05-17.314l-2.15-2.125l12.066-12.066l2.56,2.56
	c12.442,14.285,33.502,15.787,47.369,3.746c1.186-1.024,2.287-2.133,3.319-3.319l2.961-2.987l12.066,12.066l-2.56,2.56
	c-1.152,1.357-2.816,3.021-4.599,4.574C279.501,251.819,267.742,255.863,256.034,255.863z"/>
<path style="fill:#FFFFFF;" d="M162.133,76.8h264.533"/>
<rect x="162.133" y="68.267" width="264.533" height="17.067"/>
<path d="M170.667,204.8H153.6c-18.825,0-34.133-15.309-34.133-34.133s15.309-34.133,34.133-34.133h17.067V204.8z M153.6,153.6
	c-9.412,0-17.067,7.654-17.067,17.067c0,9.412,7.654,17.067,17.067,17.067V153.6z"/>
<path d="M358.4,204.8h-17.067v-68.267H358.4c18.825,0,34.133,15.309,34.133,34.133S377.225,204.8,358.4,204.8z M358.4,153.6v34.133
	c9.412,0,17.067-7.654,17.067-17.067C375.467,161.254,367.812,153.6,358.4,153.6z"/>
<path d="M486.4,512H25.6v-85.333c0-61.167,49.766-110.933,110.933-110.933h85.333V332.8h-85.333
	c-51.755,0-93.867,42.112-93.867,93.867v68.267h426.667v-68.267c0-51.755-42.112-93.867-93.867-93.867h-85.333v-17.067h85.333
	c61.167,0,110.933,49.766,110.933,110.933V512z"/>
<path d="M119.467,469.333c-1.297,0-2.611-0.299-3.814-0.896c-2.893-1.451-4.719-4.403-4.719-7.637v-42.667
	c0-2.679,1.263-5.214,3.413-6.827l20.48-15.36c6.409-4.813,10.24-12.467,10.24-20.48v-51.2c0-4.719,3.823-8.533,8.533-8.533h34.133
	c4.71,0,8.533,3.814,8.533,8.533v68.267c0,13.355-6.383,26.121-17.067,34.133l-54.613,40.96
	C123.076,468.762,121.276,469.333,119.467,469.333z M128,422.4v21.333l40.96-30.72c6.409-4.813,10.24-12.467,10.24-20.48V332.8
	h-17.067v42.667c0,13.355-6.383,26.121-17.067,34.133L128,422.4z"/>
<path d="M392.533,469.333c-1.809,0-3.618-0.572-5.12-1.707l-54.613-40.96c-10.692-8.013-17.067-20.787-17.067-34.133v-68.267
	c0-4.719,3.814-8.533,8.533-8.533H358.4c4.719,0,8.533,3.814,8.533,8.533v51.2c0,8.013,3.823,15.667,10.24,20.48l20.471,15.36
	c2.15,1.604,3.413,4.139,3.413,6.827V460.8c0,3.234-1.826,6.187-4.719,7.637C395.145,469.035,393.83,469.333,392.533,469.333z
	 M332.8,332.8v59.733c0,8.013,3.823,15.667,10.24,20.48l40.96,30.72V422.4l-17.067-12.8c-10.692-8.013-17.067-20.787-17.067-34.133
	V332.8H332.8z"/>
<path d="M256,375.467c-23.526,0-42.667-19.14-42.667-42.667v-8.533H230.4v8.533c0,14.114,11.486,25.6,25.6,25.6
	c14.114,0,25.6-11.486,25.6-25.6v-8.533h17.067v8.533C298.667,356.326,279.526,375.467,256,375.467z"/>
<path d="M392.533,512H119.467c-4.71,0-8.533-3.814-8.533-8.533v-25.6H128v17.067h256v-17.067h17.067v25.6
	C401.067,508.186,397.252,512,392.533,512z"/>
<path d="M128,512H25.6v-51.2H128V512z M42.667,494.933h68.267v-17.067H42.667V494.933z"/>
<path d="M486.4,512H384v-51.2h102.4V512z M401.067,494.933h68.267v-17.067h-68.267V494.933z"/>
<rect x="213.333" y="281.6" width="17.067" height="42.667"/>
<rect x="281.6" y="281.6" width="17.067" height="42.667"/>
<g>
</g>
<g>
</g>
<g>
</g>
<g>
</g>
<g>
</g>
<g>
</g>
<g>
</g>
<g>
</g>
<g>
</g>
<g>
</g>
<g>
</g>
<g>
</g>
<g>
</g>
<g>
</g>
<g>
</g>
</svg>
